<svg xmlns="http://www.w3.org/2000/svg" viewBox="0 0 512 512" width="512" height="512">
  <defs>
    <linearGradient id="ingotGrad" x1="0" y1="0" x2="1" y2="1">
      <stop offset="0" stop-color="#ffd38a"/>
      <stop offset="0.45" stop-color="#ff9c3f"/>
      <stop offset="0.55" stop-color="#f27a1b"/>
      <stop offset="1" stop-color="#c44d12"/>
    </linearGradient>
    <linearGradient id="cogGrad" x1="0" y1="0" x2="0" y2="1">
      <stop offset="0" stop-color="#3a3f52"/>
      <stop offset="1" stop-color="#181b28"/>
    </linearGradient>
    <linearGradient id="sparkGrad" x1="0" y1="0" x2="1" y2="1">
      <stop offset="0" stop-color="#7dffe0"/>
      <stop offset="0.5" stop-color="#2de3d5"/>
      <stop offset="1" stop-color="#1bb5b8"/>
    </linearGradient>
  </defs>

  <!-- dark backing plate -->
  <rect x="8" y="8" width="496" height="496" rx="96" fill="#12141f"/>
  <rect x="12" y="12" width="488" height="488" rx="92" fill="none" stroke="#2a2f42" stroke-width="4"/>

  <!-- cog -->
  <circle cx="256" cy="256" r="150" fill="#202436" stroke="#333a52" stroke-width="6"/>
  <circle cx="256" cy="256" r="138" fill="#181b28"/>
  <circle cx="256" cy="256" r="120" fill="#202438" stroke="#333a52" stroke-width="5"/>
  <path d="M256 136l14 36 36-14-14 36 36 14-36 14 14 36-36-14-14 36-14-36-36 14 14-36-36-14 36-14-14-36 36 14z" fill="#2a2f42"/>

  <!-- pixel ingot -->
  <rect x="176" y="196" width="160" height="26" fill="url(#ingotGrad)" stroke="#5c2a0d" stroke-width="4"/>
  <rect x="168" y="222" width="176" height="34" fill="url(#ingotGrad)" stroke="#5c2a0d" stroke-width="4"/>
  <rect x="176" y="256" width="160" height="20" fill="url(#ingotGrad)" stroke="#5c2a0d" stroke-width="4"/>
  <rect x="196" y="196" width="16" height="16" fill="#ffe3ad"/>
  <rect x="300" y="252" width="14" height="14" fill="#ffe3ad"/>
  <rect x="240" y="222" width="32" height="10" fill="#c44d12"/>

  <!-- spark / crystal accents -->
  <path transform="translate(392 128)" d="M0 4 L26 -22 L18 6 L30 14 L4 40 L14 16 Z" fill="url(#sparkGrad)" stroke="#0c6b6b" stroke-width="2"/>
  <path transform="translate(96 380)" d="M0 3 L18 -14 L12 4 L20 10 L2 27 L9 11 Z" fill="url(#sparkGrad)" stroke="#0c6b6b" stroke-width="2"/>
</svg>